<svg xmlns="http://www.w3.org/2000/svg" viewBox="0 0 300 300" style="enable-background:new 0 0 300 300" xml:space="preserve"><path d="M150 0C67.162 0 0 67.159 0 150s67.162 150 150 150c82.843 0 150-67.162 150-150C300 67.157 232.843 0 150 0zm66.312 199.725h-.003c0 9.498-7.7 17.198-17.198 17.198-9.498 0-17.198-7.7-17.198-17.198V163.77c-.739.84-1.6 1.58-2.594 2.153l-81.098 46.82a10.374 10.374 0 0 1-5.187 1.393c-1.787 0-3.582-.467-5.187-1.393a10.372 10.372 0 0 1-5.187-8.982v-93.643a10.376 10.376 0 0 1 15.562-8.984l81.1 46.823a10.462 10.462 0 0 1 2.594 2.155v-39.465c0-9.498 7.7-17.198 17.198-17.198s17.198 7.7 17.198 17.198v89.078z"/></svg>