<svg xmlns="http://www.w3.org/2000/svg" viewBox="0 0 300.003 300.003" xml:space="preserve" style="enable-background:new 0 0 300.003 300.003"><path d="M150.001 0c-82.838 0-150 67.159-150 150 0 82.838 67.162 150.003 150 150.003 82.843 0 150-67.165 150-150.003 0-82.841-67.155-150-150-150zM134.41 194.538c0 9.498-7.7 17.198-17.198 17.198s-17.198-7.7-17.198-17.198V105.46c0-9.498 7.7-17.198 17.198-17.198s17.198 7.7 17.198 17.198v89.078zm64.545 0c0 9.498-7.701 17.198-17.198 17.198-9.498 0-17.198-7.7-17.198-17.198V105.46c0-9.498 7.7-17.198 17.198-17.198s17.198 7.7 17.198 17.198v89.078z"/></svg>